HIERARCHY
ROOT Hips
{
	OFFSET -14.64140 90.27770 -84.91600
	CHANNELS 6 Xposition Yposition Zposition Zrotation Xrotation Yrotation
	JOINT Spine
	{
		OFFSET 0.00000 13.20850 -1.60436
		CHANNELS 3 Zrotation Xrotation Yrotation
		JOINT Spine1
		{
			OFFSET 0.00000 8.61716 0.00000
			CHANNELS 3 Zrotation Xrotation Yrotation
			JOINT Spine2
			{
				OFFSET 0.00000 8.61717 0.00000
				CHANNELS 3 Zrotation Xrotation Yrotation
				JOINT Spine3
				{
					OFFSET 0.00000 8.61717 0.00000
					CHANNELS 3 Zrotation Xrotation Yrotation
					JOINT Neck
					{
						OFFSET 0.00000 11.07920 1.10792
						CHANNELS 3 Zrotation Xrotation Yrotation
						JOINT Neck1
						{
							OFFSET 0.00000 7.08032 0.00000
							CHANNELS 3 Zrotation Xrotation Yrotation
							JOINT Head
							{
								OFFSET 0.00000 7.08031 0.00000
								CHANNELS 3 Zrotation Xrotation Yrotation
								End site
								{
									OFFSET 0.00000 0.00000 0.00000
								}
							}
						}
					}
					JOINT RightShoulder
					{
						OFFSET -0.01000 7.91373 5.19711
						CHANNELS 3 Zrotation Xrotation Yrotation
						JOINT RightArm
						{
							OFFSET -18.41580 0.00000 0.00000
							CHANNELS 3 Zrotation Xrotation Yrotation
							JOINT RightForeArm
							{
								OFFSET -29.11090 0.00000 0.00000
								CHANNELS 3 Zrotation Xrotation Yrotation
								JOINT RightHand
								{
									OFFSET -24.65040 0.00000 0.00000
									CHANNELS 3 Zrotation Xrotation Yrotation
									JOINT RightHandThumb1
									{
										OFFSET -5.35114 -0.85590 3.97906
										CHANNELS 3 Zrotation Xrotation Yrotation
										JOINT RightHandThumb2
										{
											OFFSET -4.52789 0.00000 0.00000
											CHANNELS 3 Zrotation Xrotation Yrotation
											JOINT RightHandThumb3
											{
												OFFSET -2.46976 0.00000 0.00000
												CHANNELS 3 Zrotation Xrotation Yrotation
												End site
												{
													OFFSET 0.00000 0.00000 0.00000
												}
											}
										}
									}
									JOINT RightHandIndex1
									{
										OFFSET -14.26970 0.00000 2.88139
										CHANNELS 3 Zrotation Xrotation Yrotation
										JOINT RightHandIndex2
										{
											OFFSET -5.48836 0.00000 0.00000
											CHANNELS 3 Zrotation Xrotation Yrotation
											JOINT RightHandIndex3
											{
												OFFSET -3.01859 0.00000 0.00000
												CHANNELS 3 Zrotation Xrotation Yrotation
												End site
												{
													OFFSET 0.00000 0.00000 0.00000
												}
											}
										}
									}
									JOINT RightHandMiddle1
									{
										OFFSET -14.26970 0.00000 -0.09147
										CHANNELS 3 Zrotation Xrotation Yrotation
										JOINT RightHandMiddle2
										{
											OFFSET -6.17441 0.00000 0.00000
											CHANNELS 3 Zrotation Xrotation Yrotation
											JOINT RightHandMiddle3
											{
												OFFSET -3.56743 0.00000 0.00000
												CHANNELS 3 Zrotation Xrotation Yrotation
												End site
												{
													OFFSET 0.00000 0.00000 0.00000
												}
											}
										}
									}
									JOINT RightHandRing1
									{
										OFFSET -12.69180 0.00000 -3.06433
										CHANNELS 3 Zrotation Xrotation Yrotation
										JOINT RightHandRing2
										{
											OFFSET -5.62556 0.00000 0.00000
											CHANNELS 3 Zrotation Xrotation Yrotation
											JOINT RightHandRing3
											{
												OFFSET -3.56744 0.00000 0.00000
												CHANNELS 3 Zrotation Xrotation Yrotation
												End site
												{
													OFFSET 0.00000 0.00000 0.00000
												}
											}
										}
									}
									JOINT RightHandPinky1
									{
										OFFSET -11.11390 0.00000 -6.03719
										CHANNELS 3 Zrotation Xrotation Yrotation
										JOINT RightHandPinky2
										{
											OFFSET -4.52789 0.00000 0.00000
											CHANNELS 3 Zrotation Xrotation Yrotation
											JOINT RightHandPinky3
											{
												OFFSET -2.46976 0.00000 0.00000
												CHANNELS 3 Zrotation Xrotation Yrotation
												End site
												{
													OFFSET 0.00000 0.00000 0.00000
												}
											}
										}
									}
								}
							}
						}
					}
					JOINT LeftShoulder
					{
						OFFSET 0.01000 7.91373 5.19711
						CHANNELS 3 Zrotation Xrotation Yrotation
						JOINT LeftArm
						{
							OFFSET 18.41580 0.00000 0.00000
							CHANNELS 3 Zrotation Xrotation Yrotation
							JOINT LeftForeArm
							{
								OFFSET 29.11090 0.00000 0.00000
								CHANNELS 3 Zrotation Xrotation Yrotation
								JOINT LeftHand
								{
									OFFSET 24.65040 0.00000 0.00000
									CHANNELS 3 Zrotation Xrotation Yrotation
									JOINT LeftHandThumb1
									{
										OFFSET 5.35114 -0.85590 3.97906
										CHANNELS 3 Zrotation Xrotation Yrotation
										JOINT LeftHandThumb2
										{
											OFFSET 4.52789 0.00000 0.00000
											CHANNELS 3 Zrotation Xrotation Yrotation
											JOINT LeftHandThumb3
											{
												OFFSET 2.46977 0.00000 0.00000
												CHANNELS 3 Zrotation Xrotation Yrotation
												End site
												{
													OFFSET 0.00000 0.00000 0.00000
												}
											}
										}
									}
									JOINT LeftHandIndex1
									{
										OFFSET 14.26970 0.00000 2.88139
										CHANNELS 3 Zrotation Xrotation Yrotation
										JOINT LeftHandIndex2
										{
											OFFSET 5.48836 0.00000 0.00000
											CHANNELS 3 Zrotation Xrotation Yrotation
											JOINT LeftHandIndex3
											{
												OFFSET 3.01859 0.00000 0.00000
												CHANNELS 3 Zrotation Xrotation Yrotation
												End site
												{
													OFFSET 0.00000 0.00000 0.00000
												}
											}
										}
									}
									JOINT LeftHandMiddle1
									{
										OFFSET 14.26970 0.00000 -0.09147
										CHANNELS 3 Zrotation Xrotation Yrotation
										JOINT LeftHandMiddle2
										{
											OFFSET 6.17440 0.00000 0.00000
											CHANNELS 3 Zrotation Xrotation Yrotation
											JOINT LeftHandMiddle3
											{
												OFFSET 3.56744 0.00000 0.00000
												CHANNELS 3 Zrotation Xrotation Yrotation
												End site
												{
													OFFSET 0.00000 0.00000 0.00000
												}
											}
										}
									}
									JOINT LeftHandRing1
									{
										OFFSET 12.69180 0.00000 -3.06433
										CHANNELS 3 Zrotation Xrotation Yrotation
										JOINT LeftHandRing2
										{
											OFFSET 5.62556 0.00000 0.00000
											CHANNELS 3 Zrotation Xrotation Yrotation
											JOINT LeftHandRing3
											{
												OFFSET 3.56744 0.00000 0.00000
												CHANNELS 3 Zrotation Xrotation Yrotation
												End site
												{
													OFFSET 0.00000 0.00000 0.00000
												}
											}
										}
									}
									JOINT LeftHandPinky1
									{
										OFFSET 11.11390 0.00000 -6.03719
										CHANNELS 3 Zrotation Xrotation Yrotation
										JOINT LeftHandPinky2
										{
											OFFSET 4.52789 0.00000 0.00000
											CHANNELS 3 Zrotation Xrotation Yrotation
											JOINT LeftHandPinky3
											{
												OFFSET 2.46976 0.00000 0.00000
												CHANNELS 3 Zrotation Xrotation Yrotation
												End site
												{
													OFFSET 0.00000 0.00000 0.00000
												}
											}
										}
									}
								}
							}
						}
					}
					JOINT pCube4
					{
						OFFSET 0.00000 10.91090 1.10792
						CHANNELS 3 Zrotation Xrotation Yrotation
						End site
						{
							OFFSET 0.00000 0.00000 0.00000
						}
					}
				}
			}
		}
	}
	JOINT RightUpLeg
	{
		OFFSET -9.98441 0.00000 0.00000
		CHANNELS 3 Zrotation Xrotation Yrotation
		JOINT RightLeg
		{
			OFFSET 0.00000 -42.11790 0.00000
			CHANNELS 3 Zrotation Xrotation Yrotation
			JOINT RightFoot
			{
				OFFSET 0.00000 -45.00020 -0.00001
				CHANNELS 3 Zrotation Xrotation Yrotation
				JOINT RightForeFoot
				{
					OFFSET 0.00000 -3.74820 0.00000
					CHANNELS 3 Zrotation Xrotation Yrotation
					JOINT RightToeBase
					{
						OFFSET 0.00000 0.06325 14.43120
						CHANNELS 3 Zrotation Xrotation Yrotation
						End site
						{
							OFFSET 0.00000 0.00000 0.00000
						}
					}
				}
			}
		}
	}
	JOINT LeftUpLeg
	{
		OFFSET 9.98441 0.00000 0.00000
		CHANNELS 3 Zrotation Xrotation Yrotation
		JOINT LeftLeg
		{
			OFFSET 0.00000 -42.11800 0.00000
			CHANNELS 3 Zrotation Xrotation Yrotation
			JOINT LeftFoot
			{
				OFFSET 0.00000 -45.00070 0.00000
				CHANNELS 3 Zrotation Xrotation Yrotation
				JOINT LeftForeFoot
				{
					OFFSET 0.00000 -3.74824 0.00000
					CHANNELS 3 Zrotation Xrotation Yrotation
					JOINT LeftToeBase
					{
						OFFSET 0.00000 0.06325 14.43110
						CHANNELS 3 Zrotation Xrotation Yrotation
						End site
						{
							OFFSET 0.00000 0.00000 0.00000
						}
					}
				}
			}
		}
	}
}
MOTION
Frames: 4
Frame Time: 0.050000
0.03254049774951292 0.008467459565425333 0.013078820246663084 -0.049041310333519376 -0.04059491430022263 0.008127730787893604 -2.5997662228689085 0.971758268765685 -0.7849125501169526 -0.9794612986997613 3.8100838430880617 0.435339763091421 -1.2266403669269563 -1.690364847809069 -0.5485087098542993 0.16217311708834992 0.4790429516741691 -0.7423343334676077 0.03554735369413389 12.682100396980907 -0.3160663701483107 0.08971099540409891 -0.341514652992264 -2.811848499933557 0.2644591993930334 -15.653743326687147 -0.2510785619695212 -4.47343181509965 1.672340124481772 -13.991114243902233 67.84136565237979 21.836289545883655 9.67870783379564 5.386463288573462 2.0958369065789193 69.99455347136255 15.519836295086092 -0.2392340938984282 -2.238050660819447 4.486352700973592 -0.16828057565245513 -1.5825827171986706 -0.03065987743550668 0.048238379085784516 -56.22700204248762 0.03825285655221857 -0.035391407357842714 -56.204156275210615 -38.73478106877453 0.003541258847185051 -0.02569256795335913 0.025754799784963804 0.017657560190627915 0.012801699033451056 -0.007570138597278665 0.0032535314388274796 0.040624642459023294 -36.66014364491087 0.04828202435123296 -0.019119617513730123 -0.025861441634013996 -0.02814099917254934 -0.01904634336296447 0.007278565205744215 0.042894976392925235 -0.0016280805885378479 -19.73895167962977 0.042997254911096405 -0.005309128031609221 -0.002888258042587305 -0.010020664474431312 -0.011245674635057927 0.019323687650808122 -0.001390416609351881 -0.005055449460773997 24.028576891052285 0.005553411696549024 0.027779309496624986 28.896250569821614 0.045159797307460336 -0.044734919387354924 28.911038006102775 0.014414209878894803 0.032474759941878706 5.185067154889562 1.2466986286197115 12.737581882657663 -67.66376835480855 30.733509230474056 -9.542894493352685 -13.365788003896967 0.597053409456785 -69.75329078517812 -9.07855518134285 -0.1772417175881394 1.5860757175958788 -0.5024611194618885 0.11347906317670639 -8.096866313420158 0.029920543027713704 0.010455904155519523 44.57516087941084 0.02870322309172185 -0.04203388861985128 44.565021373250964 12.411959510292572 -0.006761002656476348 0.013364577315058565 0.012885512914823719 -0.004473620993993928 0.007520874313990376 0.024995874421825326 0.0006210164053333386 0.04770869838286065 11.07793070673525 -0.046202725285938155 0.0008813163571440082 -0.011553415413888024 0.04028493735713955 0.03307815878336971 -0.029896823125862726 0.03494908863711974 -0.007752428078183967 4.765950430979808 -0.014926424670935011 -0.027697919710822336 0.020152776146286598 0.022313733388327987 0.011144129518958013 -0.024535776666369132 0.00633160481286029 -0.038696183444841784 -5.590983319034603 -0.028583456686183645 0.02073897764902358 -6.734649277525352 0.03659439217303206 -0.015120058844269002 -6.723776040296322 -0.035337765027137105 0.013278867552524587 -0.00359714422977662 0.03562291394625563 -0.00647402291073817 8.037994530762457 3.4730219094730934 -19.260476955251715 -0.003191149073478915 10.378176095529549 -0.005777719963251712 -5.629825434693185 -15.704635875819452 3.157542090959017 -0.022189161811761355 0.02127265949944912 0.04632721460904627 -0.022253233539086332 4.743082429238534 -0.03774337096503959 12.433948469521964 -8.241933662272496 6.858665015294062 -0.024182609219091468 46.399534131468485 -0.04121171176113385 -4.340302259656743 -14.747184969046183 -3.852066702607727 0.025548903765237798 0.008904546873652708 -0.001663831328985996 -0.013668316595086404 -10.718209686745116 -0.03706717316099621 
-0.047006125725799014 0.02734002335427126 0.03448450758189996 -0.024488825499300104 -0.0001178626979525071 0.046230574372620306 -2.697090128258488 0.996160827170999 -0.7451754439435504 -1.0485610735382858 3.8342536893871704 0.34790352806113645 -1.243544731676293 -1.734331126039186 -0.6114290865444857 0.07757730743598261 0.45516479496979917 -0.7645306277153351 -0.022183925936921887 12.614780078477361 -0.2636493911949206 0.04136658386894415 -0.33423934135053585 -2.6181055860065117 0.30980518513101785 -15.634425922755197 -0.1929091574930924 -4.494374122719962 1.6530466908238053 -13.964258109977624 67.65464293310147 21.773375434964237 9.42578626383741 4.01192595608779 1.8544303562268205 71.21557563638571 15.834346799830206 -0.2772774813458981 -2.3935704642621918 4.512349306317794 -0.12436293818999059 -1.5616255848328044 -0.031976139611652764 -0.037315120880393494 -56.2599145118845 0.009089607053285457 0.0417937134705387 -56.25718947764081 -38.80668999934962 0.024660357230801244 -0.03918592305748323 -0.006830212290489459 0.02028774265891734 0.009838120672733321 -0.009444108489747888 -0.024466750975406463 -0.001971445843790324 -36.6850331533017 -0.04743730625821953 -0.008936400022611944 -0.02987492934373123 0.002178443285595591 0.015534488635026685 -0.020801734769833578 0.007088890719970537 0.019027535778345414 -19.780722539849943 0.004646113661760944 -0.04603178984236976 0.006948078043185066 0.00911806560314566 -0.004379427858235907 0.013908819716308876 0.01490107250013984 -0.028016500958382234 24.102758797918256 0.04739706426961007 0.018909745558020167 28.879919345403994 -0.00701159953521823 -0.03517152080764929 28.90722867982634 0.013464336040839832 0.006003333930346386 5.221778790578091 1.2852567481991073 12.763114938729377 -67.51028314795862 30.6438348300599 -9.612654947608535 -11.842647524592724 -0.06362574874865874 -69.69055883879554 -9.1353337923191 -0.007727771226385769 1.5420601474881193 -0.4336276286742303 0.029817483803977037 -8.143934445488203 0.00380258555818975 -0.031855353388337226 44.58771757777207 -0.027536588755169483 -0.029775386661911832 44.5842542782476 12.471978346152428 0.018241693552963047 0.0036197819672596507 0.010700239438008484 0.007903036080426142 0.03086032711658481 0.032539056146069424 0.02065124680698804 0.0013068250308243504 11.104962842489128 -0.03225072984986981 0.023118041848209824 0.030200241141379487 0.03496723953513611 -0.030202397879103407 -0.04799426653207652 0.026286639388937133 -0.014729675323093213 4.77141053033315 -0.01658779201119633 0.02282364678468442 -0.03758489035562022 0.00993730664553952 0.041170895051511114 -0.027896281457299804 0.03037302563857202 0.0062336272601493875 -5.607748499974178 0.04463634609309242 0.022050968125445946 -6.7217039606687266 0.03595370628460725 -0.008654084130115983 -6.743889366581955 0.03289841232047261 -0.020023588293788603 0.0026484149617842434 -0.01622606266246785 0.006695035564714411 8.037080033105347 3.4719150885868366 -19.21508225171514 -0.02846326195589339 10.429129356766094 0.02350042637698854 -5.639325737776332 -15.68416406177443 3.1504440333134025 0.047847254844201256 -0.04090331813260508 0.03396955103861399 -0.004013657077471185 4.736985264092415 -0.04703214499059303 12.413371692417796 -8.258309895920432 6.877023034696425 0.034524897188177375 46.428695106713825 0.00014832663427000246 -4.276548119314916 -14.766043190508594 -3.8586496322100454 -0.04465440796654132 0.011589894253295817 -0.013898642966594368 0.015513564955769615 -10.712540862587709 -0.049930071990614264 
0.03712211227419073 -0.01605197527625068 -0.027493470019167063 0.01941589923751096 0.031231425499118167 0.03317619230011585 -2.8432278370532753 0.8952710161307664 -0.7898157393772026 -1.0395376898147877 3.827012027107491 0.35693778127722753 -1.2482096955755935 -1.6829306850497479 -0.5188289289995981 -0.01579785127179089 0.5159662081783007 -0.7995051193355689 -0.04274371556700814 12.596247229121415 -0.08638996828244595 0.07231127741176377 -0.3148794167987317 -2.2360196202773506 0.24541557935368935 -15.604801044815709 -0.2300482929400873 -4.602836691331112 1.6522575925792335 -13.966565111143998 67.39149942731535 21.917357092133173 9.317175816133792 2.1371600534567676 1.5347929421370725 71.90731188151946 16.11184605011432 -0.30061914098961506 -2.5198768087773527 4.559912660028166 -0.0932631072866803 -1.6128567964052525 -0.019539718486792444 -0.008070744773290357 -56.26614243291535 -0.01713072472006366 0.0023277683329797232 -56.23138095792543 -38.78548121456287 0.0006016398485246841 -0.0002497563553887389 -0.03898668805184195 0.039317678471286754 0.013601569440069865 0.035191200323201215 0.02723048552068381 0.04599984095509299 -36.70910932212193 -0.046763611785985044 0.009477406499487539 0.039631441597337905 -0.02928525771968081 -0.02784173002563436 0.012819535517955364 0.0199680544862502 -0.036751787538973346 -19.723411526578392 -0.04889053363170706 0.01899338344650303 -0.036260580711166036 0.025888626253208962 -0.025302395137104784 0.022081137782915452 0.021108319100575052 0.012042220820935973 24.079891757684212 -0.028167864910227408 -0.02736105633464491 28.900719124452248 0.03219971296667622 0.04877474891258467 28.902783004622474 0.005840457655048061 0.0144254640367832 5.244203653387618 1.2741197889310882 12.841932322318483 -67.52532677235887 30.490943352520308 -9.427910644703818 -9.770531140344138 -0.9016971028086798 -68.60500538445093 -9.302737936687254 0.24893072836051128 1.4727803638415753 -0.45416231045597405 0.10286348808796028 -8.1717550912412 -0.008654522350166054 -0.018343781292225986 44.525633556997235 0.007231448949059242 -0.030092901471147286 44.55947450430503 12.484925730514929 0.005865429088897845 0.044297468319055996 -0.04729170491498913 0.048014734597599563 0.01959190971882951 -0.003483743675069242 0.03438303131432088 -0.0322719309971003 11.112659636102697 -0.04120908623652309 -0.033908031941632784 0.046481812759701306 0.03330064948333394 0.04395510046557494 -0.022386452203167383 -0.020932910877196818 -0.00045676696255501193 4.773989656781837 0.03566323594864824 -0.009986359679579735 0.009164777712862346 0.0035856207156351703 0.014117584729216455 -0.04172934981200564 -0.03618896092990827 -0.02545484797851164 -5.581055389643781 -0.03634947617972946 0.011329991392946956 -6.715253514468101 -0.01700071978122435 -0.020673883046251174 -6.744795193401857 -0.005596193684569725 0.0077051815879808526 -0.04595318849949268 0.033630577294995696 0.010464137976089053 8.0790182841131 3.5064636302512153 -19.184203879065922 0.026158182850202775 10.437306428351564 0.027138037508732053 -5.6315001923370325 -15.70518963356884 3.1808414341871107 -0.004939895708548114 -0.015302157187820381 0.04764361367592509 -0.027945664491725995 4.7113582850502835 -0.030430747234002294 12.437378325818182 -8.217201688022897 6.921400001052265 0.01704520524809592 46.35793411535771 0.036995860364169166 -4.284671604634507 -14.70863478900368 -3.8334970737150305 0.016917100861012307 0.031018076335580076 -0.001284162003217907 -0.025938299516287924 -10.783712071955861 -0.018141088305151938 
0.025976676339063084 -0.008608471674405545 0.014464967426765521 -0.001225273886034112 -0.040758824252268705 0.026065652600098813 -3.0231339459303164 0.9215784330240645 -0.7672983275644295 -1.0421062348321213 3.8194605246748456 0.41648881524898224 -1.2289345701129417 -1.7431192088899234 -0.4748413430153558 -0.17316993111941834 0.4810550222305433 -0.7789446670809149 -0.09431518899835092 12.604528269282905 0.14269666965467678 0.1530664582165439 -0.24784266497829827 -1.8908414861438343 0.2660625198033126 -15.50775784378735 -0.14931179867316807 -4.733997118964897 1.7358742602015216 -13.861434527024503 67.06898163673976 22.18119523718624 9.440936666422724 0.6385356107394029 1.3354643053114654 71.78346243967626 16.687814812802856 -0.2918476051838958 -2.706704402043929 4.567780861580168 -0.13385241841758053 -1.6093747161941911 0.019592140055164554 0.038763461410176565 -56.24159110917379 -0.014641878014345746 -0.022548537048567935 -56.20484044590124 -38.80504545355926 -0.03917741523106384 -0.008705016177044236 -0.012256096218264593 -0.009460285468753727 -0.0320229705501716 -0.00010849239047400144 -0.029864999369619658 0.011706054379936076 -36.6770390100456 -0.029383645644309384 0.0064382211394132475 0.002397632405905526 0.013207117120600319 -0.01658985195440187 -0.028323098409829158 0.008267451536182094 0.04068616976447359 -19.757723517119896 -0.001323355873302353 0.004671191935019971 -0.03633045133285555 0.02682082592197833 -0.04572134282054015 -0.004691681796782963 0.025225611504000076 0.0010901128225326822 24.05765593884225 -0.04811966513209111 0.006411661922760517 28.907567096933544 -0.018948906806001475 -0.0044428719217432435 28.8264313648029 0.02752579987003284 0.020099507689975135 5.364514443327747 1.241266682973512 12.917566263232427 -67.44163390036817 30.17537825337796 -9.154813761918588 -7.835968808528201 -1.8443813750449694 -66.62303611026378 -9.519102697219703 0.6162781014632872 1.3917983727627894 -0.5055974228388466 0.07503600522369334 -8.161417571616832 -0.002762563393351564 -0.040022826777395604 44.570843817889035 -0.036311331613777406 0.02663101389842104 44.55098499397002 12.411894006027591 0.0008796266798815047 -0.02446827422129868 0.022381090584532266 0.0015049268677281354 -0.01662015717212375 0.000522543963087044 0.02322008104620136 0.033910308563663824 11.145518521532185 -0.010336388057867013 0.04250992834825531 0.0035807840567963606 -0.019553265321927717 -0.02841978146344254 0.002985202257290343 0.0051888403440494765 0.044015331540916414 4.7412609294113475 0.021357913697511246 -0.013655116197494281 -0.02391256651219271 -0.014281189918353011 -0.027967463848696642 0.041876905859816606 0.027043659474208264 0.03593914685077366 -5.583918542158781 -0.010674632652200413 0.010508788650216592 -6.678409268763623 -0.00067134423283144 0.04641271620344194 -6.679393529550753 -0.04106652585488794 0.04096649340887423 -0.022644581723846566 -0.0037042664622466926 0.03377795636347782 8.035702138993145 3.4933477990523745 -19.21501156185005 -0.04688492635714015 10.357195606100044 0.019050860684295616 -5.599102818048479 -15.651287644545068 3.231644977306897 0.0034018987541113593 0.004232853377546733 -0.02339295788133318 0.025582795893465148 4.734149591032742 -0.021039481433113724 12.418126444472408 -8.243210091479373 6.874991096304971 0.03358329359789192 46.40144266085821 0.029994156664323687 -4.352063350841023 -14.719993492537052 -3.8173091111623356 -0.014966055062109648 0.014048537437033222 0.031111602098159673 -0.037433512881010496 -10.70512576845607 0.004366686001966876 
